<?xml version="1.0" standalone="no"?>
<!DOCTYPE svg PUBLIC "-//W3C//DTD SVG 20010904//EN"
 "http://www.w3.org/TR/2001/REC-SVG-20010904/DTD/svg10.dtd">
<svg version="1.0" xmlns="http://www.w3.org/2000/svg"
 width="215.000000pt" height="365.000000pt" viewBox="0 0 215.000000 365.000000"
 preserveAspectRatio="xMidYMid meet">

<g transform="translate(0.000000,365.000000) scale(0.100000,-0.100000)"
fill="#000000" stroke="none">
<path d="M626 3625 c-88 -32 -227 -106 -293 -156 -74 -57 -143 -135 -143 -160
0 -12 25 -57 55 -100 30 -43 55 -80 55 -83 0 -2 -18 0 -40 5 -84 19 -127 -31
-117 -137 l6 -61 -40 -19 c-28 -12 -49 -32 -67 -63 -24 -41 -26 -55 -26 -136
1 -104 18 -159 68 -220 l34 -41 -14 -89 c-7 -50 -13 -93 -14 -97 0 -5 -6 -8
-13 -8 -31 0 -52 -80 -52 -191 0 -102 1 -109 35 -175 43 -83 94 -125 188 -154
81 -26 410 -92 431 -88 19 4 -29 17 -219 58 -200 44 -239 56 -301 93 -44 26
-59 43 -84 92 -28 56 -30 67 -30 175 0 63 4 123 8 134 7 17 9 16 29 -9 25 -32
91 -64 131 -65 15 0 43 7 62 14 l35 15 0 -80 c0 -81 12 -122 44 -148 21 -17
20 -7 -1 26 -12 17 -17 47 -17 97 -1 69 0 71 24 71 20 0 31 -11 53 -53 33 -60
90 -122 113 -122 11 0 6 9 -15 29 -39 37 -39 42 1 31 29 -9 69 -5 93 8 5 4 -1
9 -14 12 -23 5 -23 6 -7 23 30 30 63 21 120 -33 29 -27 55 -50 58 -50 3 0 6
12 6 27 0 35 37 67 62 53 21 -11 71 -70 91 -106 11 -22 10 -30 -11 -69 -22
-41 -23 -44 -7 -69 9 -14 26 -30 37 -36 28 -15 25 -32 -10 -63 -16 -15 -30
-31 -30 -36 0 -18 40 -42 139 -85 58 -25 118 -58 134 -73 22 -21 27 -23 19 -8
-5 11 -18 28 -29 37 -20 18 -181 98 -198 98 -6 0 -20 7 -32 15 -22 15 -22 15
20 54 41 39 42 39 56 18 43 -66 98 -97 116 -67 13 21 23 8 50 -66 27 -73 29
-75 41 -53 7 13 20 54 29 90 l17 67 30 -15 c28 -14 32 -14 56 4 29 22 39 49
41 105 l1 37 48 -27 c27 -16 48 -37 50 -48 3 -22 -61 -87 -206 -209 -89 -74
-122 -117 -122 -158 0 -51 52 -73 98 -41 16 11 22 25 22 55 0 35 -4 42 -31 53
l-31 13 108 86 c104 83 109 86 117 64 15 -38 11 -178 -8 -252 -17 -64 -40
-125 -109 -277 -14 -32 -23 -58 -21 -58 3 0 19 21 35 47 27 42 30 44 30 21 0
-69 -131 -388 -155 -379 -5 2 -29 60 -51 130 -23 69 -51 145 -62 169 l-19 43
-30 -53 c-43 -75 -113 -158 -163 -193 l-42 -29 -30 37 c-31 38 -55 46 -76 25
-9 -9 -12 3 -12 58 -1 94 -26 149 -79 172 -39 17 -40 18 -35 62 8 82 30 121
100 184 37 33 74 77 84 98 20 44 30 40 30 -14 0 -21 5 -38 11 -38 19 0 5 100
-23 161 -14 31 -43 75 -63 98 -36 39 -36 41 -11 32 43 -17 89 -42 126 -69 l35
-25 -35 37 c-53 56 -158 103 -270 121 -52 8 -102 15 -110 15 -33 0 14 -19 79
-31 76 -14 104 -26 148 -67 41 -39 93 -120 93 -146 0 -37 -59 -125 -111 -166
-29 -22 -54 -38 -57 -36 -3 3 3 55 13 115 19 119 16 165 -16 205 -16 20 -29
26 -58 26 -54 0 -88 -39 -102 -116 -6 -32 -13 -70 -16 -83 -3 -20 -11 -7 -38
58 -39 98 -80 152 -124 165 -51 15 -73 -14 -79 -106 -5 -82 13 -168 54 -257
13 -30 23 -56 21 -58 -2 -2 -49 44 -104 102 -85 90 -104 105 -130 105 -46 0
-66 -25 -60 -72 15 -113 175 -306 304 -369 l43 -21 0 -78 c0 -72 3 -85 39
-154 l39 -75 -22 -19 c-11 -10 -51 -39 -87 -65 -81 -56 -159 -140 -190 -204
-33 -68 -38 -166 -10 -220 24 -49 74 -93 105 -93 12 0 33 -12 47 -26 29 -32
71 -54 100 -54 21 0 82 53 91 79 3 12 11 10 39 -10 28 -20 47 -24 109 -25 55
-2 86 -8 115 -23 103 -55 263 2 327 116 18 31 37 53 47 53 29 0 131 70 147
102 19 37 11 78 -21 108 l-24 22 42 32 c56 42 104 108 118 159 14 53 6 162
-17 209 -17 36 -16 38 16 148 22 75 31 124 27 149 -6 49 17 108 37 92 7 -6 16
-29 20 -51 4 -25 14 -43 26 -50 25 -13 25 -25 0 -57 -28 -36 -27 -105 2 -133
26 -24 40 -25 78 -5 27 14 31 13 66 -10 20 -14 41 -25 47 -25 6 0 3 -8 -5 -17
-9 -10 -18 -26 -19 -36 -2 -10 -6 -17 -9 -16 -13 6 -52 -25 -60 -47 -21 -55
48 -138 125 -151 28 -5 35 -9 29 -22 -4 -9 -9 -44 -12 -78 -5 -78 16 -147 69
-213 44 -55 81 -78 154 -94 47 -11 51 -15 86 -76 37 -66 52 -76 94 -66 39 10
39 38 1 107 l-35 63 22 30 c18 25 22 45 22 102 0 61 -5 80 -37 146 -38 76
-112 158 -143 158 -23 0 -10 37 25 75 15 17 30 42 34 58 17 71 -32 111 -80 66
-21 -20 -27 -21 -34 -9 -7 11 -2 18 18 29 15 7 35 20 44 29 12 10 22 12 30 5
28 -22 65 -23 90 -3 36 28 42 73 17 128 -24 56 -51 86 -101 114 -33 19 -36 24
-31 53 7 41 -11 96 -42 129 -29 32 -72 34 -130 6 -28 -13 -43 -15 -52 -8 -8 6
-30 8 -52 4 l-39 -6 -16 68 c-9 40 -15 101 -13 151 l2 83 -37 33 c-36 30 -38
36 -38 89 0 37 7 70 20 96 25 49 26 106 1 146 -11 18 -20 56 -23 97 -4 75 -21
101 -74 116 -52 14 -98 -3 -137 -52 -51 -63 -56 -78 -8 -25 65 73 138 86 181
31 17 -21 20 -42 21 -122 0 -68 3 -89 9 -73 5 12 12 22 14 22 13 0 25 -78 17
-105 -9 -28 -9 -28 -10 14 -1 36 -3 42 -13 32 -16 -15 -15 -281 1 -308 9 -15
10 -12 11 17 l0 35 20 -25 c27 -35 34 -80 21 -142 -7 -29 -14 -64 -16 -78 -5
-24 -4 -24 8 3 13 27 14 25 31 -73 17 -96 17 -102 1 -120 -22 -24 -75 -40
-131 -40 -62 0 -67 13 -38 104 31 99 40 203 24 279 -11 56 -11 60 14 96 14 20
26 46 26 57 0 23 -40 64 -84 87 l-30 15 22 13 c25 16 29 51 8 68 -8 7 -16 38
-18 73 -4 48 -9 65 -27 79 -27 22 -71 10 -102 -29 l-22 -27 7 85 c8 97 33 170
57 170 10 0 31 16 48 35 34 39 41 42 41 20 0 -25 38 -17 57 11 9 15 24 49 34
76 l16 49 7 -31 c14 -73 76 4 76 94 0 46 1 48 15 30 15 -19 15 -19 30 0 38 50
-6 201 -76 260 -16 14 -29 28 -29 31 0 4 27 5 60 3 57 -3 59 -2 46 17 -31 47
-64 60 -147 60 l-80 0 24 20 c13 11 33 25 43 32 17 11 17 12 -9 12 -37 1 -88
-23 -118 -55 -12 -13 -26 -24 -31 -24 -13 0 -9 39 7 71 l16 30 -48 -24 c-82
-41 -90 -42 -128 -8 -36 31 -77 46 -157 56 -27 4 -48 9 -48 13 0 4 25 27 56
51 71 56 131 132 140 178 5 29 2 47 -17 83 -24 45 -24 45 -74 43 -28 -1 -77
-12 -110 -23 l-60 -21 -26 31 c-14 16 -47 71 -74 121 -49 95 -76 129 -97 129
-7 -1 -44 -12 -82 -25z m123 -40 c18 -32 19 -35 3 -35 -30 0 -164 -64 -262
-125 -52 -32 -127 -91 -167 -130 l-73 -72 -25 37 c-14 20 -25 41 -25 48 0 39
175 180 298 239 181 86 219 92 251 38z m366 -200 c0 -5 -18 -13 -40 -16 -154
-27 -489 -214 -668 -373 -67 -59 -87 -73 -96 -62 -19 22 143 164 292 255 213
130 512 245 512 196z m35 -103 c0 -5 -7 -17 -15 -28 -14 -18 -14 -17 -4 9 12
27 19 34 19 19z m-40 -65 c0 -2 -19 -21 -42 -42 l-43 -40 40 43 c36 39 45 47
45 39z m-709 -97 c10 -6 19 -15 19 -21 0 -5 -28 -36 -62 -67 -61 -57 -85 -65
-116 -40 -7 6 -15 8 -18 5 -9 -9 6 -27 30 -37 18 -7 16 -9 -14 -10 -19 0 -45
-3 -56 -6 -17 -5 -22 0 -27 23 -9 45 12 122 36 137 23 14 107 11 107 -4 0 -5
-12 -18 -27 -29 -14 -12 -24 -24 -21 -27 3 -3 29 15 57 40 55 49 62 52 92 36z
m515 -31 c18 -19 54 -70 80 -114 45 -78 54 -66 14 18 l-19 39 42 -7 c23 -3 74
-22 112 -41 81 -40 88 -40 137 -14 l36 19 -10 -36 c-14 -53 6 -59 62 -19 64
46 79 54 58 29 -31 -35 -22 -42 51 -42 44 0 82 -6 107 -17 l39 -18 -30 -3
c-66 -7 -95 -14 -95 -23 0 -6 6 -10 14 -10 19 0 71 -60 97 -112 12 -24 24 -70
27 -106 5 -63 5 -64 -17 -51 -11 8 -21 17 -21 21 0 5 -4 8 -9 8 -4 0 -11 -33
-14 -74 -3 -41 -10 -83 -15 -92 -9 -15 -12 -14 -25 13 -9 17 -13 33 -10 37 4
3 1 6 -5 6 -6 0 -18 -22 -26 -49 -17 -58 -43 -111 -55 -111 -15 0 -33 29 -27
45 11 29 -12 15 -24 -15 -11 -27 -58 -75 -66 -68 -1 2 4 32 13 68 19 81 13
201 -11 250 -39 76 -109 130 -168 130 -33 0 -130 -48 -144 -72 -5 -7 -13 23
-20 70 -21 148 -102 272 -178 272 -73 0 -105 -106 -72 -240 7 -30 17 -62 20
-72 5 -11 -19 -3 -80 28 -49 24 -96 44 -106 44 -10 0 -18 4 -18 8 0 14 54 84
92 120 l35 33 9 -28 c6 -23 9 -16 15 43 12 122 53 178 128 170 33 -3 52 -12
77 -37z m-59 -98 c34 -21 73 -81 97 -148 l15 -42 -30 -6 c-16 -4 -38 -19 -50
-33 -17 -22 -20 -37 -17 -84 l4 -57 -36 20 c-30 17 -41 32 -58 83 -40 116 -41
227 -1 267 24 24 36 24 76 0z m-576 -71 c46 -25 60 -100 37 -202 l-11 -53 -13
41 c-16 56 -41 92 -75 110 -42 21 -59 17 -21 -6 45 -27 72 -89 72 -165 0 -73
-19 -108 -57 -103 -40 5 -66 49 -71 118 -2 33 -8 60 -13 60 -5 0 -9 -8 -10
-17 0 -12 -5 -8 -14 12 -14 30 -14 30 -15 5 0 -14 6 -34 14 -45 7 -11 16 -37
20 -57 13 -71 95 -125 134 -86 9 9 13 7 18 -5 6 -17 4 -33 -12 -72 -7 -20 -7
-20 14 -1 23 20 29 69 13 95 -11 17 7 79 30 106 23 27 39 89 39 156 0 53 3 59
36 88 30 27 43 32 77 29 35 -3 43 -7 51 -31 9 -23 6 -32 -20 -60 -113 -122
-157 -220 -153 -345 2 -70 1 -75 -27 -98 -25 -22 -26 -24 -7 -19 l22 6 -19
-39 c-10 -21 -22 -51 -26 -66 -6 -25 -10 -27 -38 -22 -44 9 -136 72 -136 94 0
9 3 33 6 53 5 31 9 36 28 31 15 -4 7 8 -27 42 -70 67 -91 120 -91 231 -1 110
14 157 58 184 56 35 150 50 187 31z m269 -107 c0 -17 -16 -30 -42 -35 -23 -4
-26 -3 -18 13 13 23 60 41 60 22z m416 -47 c3 -7 -9 -27 -26 -45 -28 -28 -31
-35 -25 -71 8 -46 -9 -56 -25 -14 -16 41 -12 89 11 118 22 28 56 35 65 12z
m-317 -41 c29 -14 80 -43 114 -64 34 -21 83 -45 108 -53 43 -15 49 -15 87 2
22 10 57 34 78 53 52 46 95 67 140 67 50 0 107 -59 129 -132 30 -103 12 -264
-41 -355 -25 -43 -76 -89 -131 -117 -45 -23 -47 -20 -19 17 27 35 50 87 38 87
-4 0 -17 -18 -30 -40 -25 -43 -68 -71 -113 -72 -30 -1 -38 -12 -16 -22 24 -11
-109 6 -160 20 l-52 14 16 38 c10 20 18 38 19 40 0 1 21 -7 45 -18 54 -24 129
-26 175 -4 101 48 118 187 38 319 -19 32 -34 59 -34 61 0 2 16 6 35 10 50 9
45 28 -6 21 -45 -6 -73 -27 -96 -70 -15 -29 -8 -54 7 -27 5 8 16 24 24 35 15
19 15 18 16 -20 0 -97 -39 -159 -130 -205 -65 -33 -103 -73 -120 -127 -27 -82
-74 -101 -159 -63 -146 67 -248 242 -239 413 4 88 44 178 92 208 41 27 115 20
185 -16z m-237 -450 c33 -64 110 -140 165 -162 43 -18 56 -33 29 -33 -8 0 -24
-12 -35 -27 -20 -25 -24 -26 -68 -17 -39 8 -51 16 -78 54 -24 34 -39 46 -62
48 -40 4 -50 37 -28 89 13 31 14 44 5 74 -10 30 -9 41 5 70 l18 34 12 -40 c6
-22 23 -62 37 -90z m445 -187 c68 -22 73 -26 87 -63 9 -22 13 -50 10 -63 -6
-20 -9 -19 -34 21 -30 48 -78 87 -106 87 -21 0 -54 -28 -54 -47 0 -20 -11 -15
-57 25 l-42 37 37 3 c20 1 43 9 52 17 8 8 19 13 25 11 5 -3 42 -15 82 -28z
m273 -20 l-1 -33 -14 25 c-10 19 -10 27 -2 32 17 11 17 11 17 -24z m-141 -84
c-7 -9 -16 -34 -20 -57 l-8 -42 3 49 c2 27 10 52 17 57 21 13 23 11 8 -7z
m441 -84 c0 -4 -7 -10 -15 -14 -11 -4 -15 2 -15 21 0 21 2 24 15 13 8 -7 15
-16 15 -20z m-236 -19 c4 -5 -3 -7 -14 -4 -23 6 -26 13 -6 13 8 0 17 -4 20 -9z
m-234 -49 l15 -49 -32 20 c-34 20 -42 44 -21 65 18 18 22 15 38 -36z m-618
-209 c14 -16 32 -41 41 -58 21 -43 76 -217 92 -294 l13 -65 -38 -43 -39 -42
-39 47 c-98 116 -166 401 -113 466 20 24 54 19 83 -11z m292 -18 c24 -37 18
-132 -19 -301 -3 -11 -27 -35 -54 -51 l-49 -31 -18 74 c-29 124 -5 281 49 319
33 23 72 19 91 -10z m626 -176 c16 -30 4 -68 -26 -79 -53 -21 -83 28 -48 78
19 28 60 29 74 1z m-1126 -46 c24 -32 94 -107 155 -167 l110 -109 -20 -38
c-10 -21 -19 -45 -19 -54 0 -23 -8 -19 -92 40 -151 108 -287 322 -236 373 26
26 56 13 102 -45z m1759 -41 c24 -26 47 -87 47 -122 0 -32 -1 -33 -24 -24 -12
4 -16 20 -16 54 0 72 -16 69 -23 -3 -3 -34 -11 -80 -17 -102 l-12 -39 -19 23
c-15 18 -19 20 -19 7 0 -29 44 -63 102 -80 62 -18 74 -34 58 -82 -15 -45 -69
-75 -145 -81 l-60 -5 53 37 c28 21 52 41 52 45 0 3 -34 -11 -76 -32 -101 -51
-131 -50 -191 5 -26 23 -44 34 -40 25 4 -12 0 -21 -13 -28 -66 -35 -115 30
-75 100 l14 25 1 -27 c0 -16 5 -28 10 -28 6 0 10 18 10 40 0 31 4 40 18 40 9
1 34 7 55 14 28 10 37 11 37 2 0 -18 49 -61 57 -51 5 4 2 10 -5 12 -7 3 -17
14 -23 25 -9 17 -8 18 9 9 18 -10 32 -6 32 10 0 3 -8 9 -18 11 -15 4 -20 18
-25 64 -4 35 -2 63 5 71 6 7 8 25 5 39 -6 34 26 48 66 27 25 -13 31 -12 70 12
50 29 78 32 100 7z m-1288 -133 c-8 -23 -15 -59 -15 -81 0 -26 -7 -46 -21 -61
-39 -41 -52 -80 -57 -172 -5 -93 -22 -144 -59 -178 -20 -17 -21 -16 -53 55
-61 136 -42 239 64 356 47 51 132 121 148 122 4 0 1 -19 -7 -41z m1358 -50
c23 -12 53 -31 65 -43 29 -26 62 -88 62 -116 0 -50 -42 -86 -81 -71 -20 7 -23
14 -20 50 4 57 -17 85 -74 102 -39 12 -45 17 -40 34 4 11 9 30 12 43 7 27 22
28 76 1z m-1305 -114 c32 -27 45 -67 59 -182 l9 -73 -38 0 c-25 0 -45 -7 -58
-20 -22 -22 -19 -36 13 -59 17 -12 14 -16 -45 -55 -40 -26 -66 -51 -73 -69
-12 -36 3 -61 39 -65 14 -2 26 -5 26 -8 0 -2 -20 -33 -44 -68 -53 -78 -72
-132 -89 -257 -21 -148 -59 -196 -128 -160 -22 11 -43 35 -59 67 -21 42 -25
63 -25 139 0 79 4 97 29 145 15 30 35 63 44 73 8 9 13 20 10 23 -7 6 -60 -60
-80 -101 -29 -55 -40 -137 -29 -206 6 -34 9 -65 7 -67 -8 -8 -46 19 -70 51
-14 18 -30 53 -37 78 -10 39 -9 53 6 103 29 90 99 172 237 274 72 53 133 116
148 153 7 16 15 27 19 25 3 -2 5 27 3 65 -4 85 20 171 56 199 31 25 34 25 70
-5z m497 -247 c16 -49 34 -93 42 -99 24 -21 58 6 95 76 l35 67 13 -61 c16 -76
8 -158 -20 -217 -27 -54 -109 -120 -176 -140 -95 -28 -255 -13 -353 34 -38 19
-39 19 -76 -4 -47 -28 -102 -39 -120 -24 -12 10 -12 17 2 44 9 17 27 45 39 62
32 41 30 48 -6 29 -16 -8 -43 -15 -60 -15 -67 0 -12 74 92 123 26 12 47 24 48
27 0 3 -14 11 -31 17 -21 8 -30 17 -27 30 3 15 14 18 76 18 39 0 72 3 72 8 0
4 -9 7 -19 7 -10 0 -22 7 -25 16 -24 63 23 59 65 -7 43 -67 68 -83 121 -76 43
6 88 33 96 58 3 9 -2 8 -17 -5 -20 -18 -22 -18 -60 -1 -22 9 -45 15 -53 12 -8
-3 -3 -9 14 -17 15 -7 25 -17 22 -21 -9 -15 -46 -10 -66 7 -17 16 -16 18 26
48 52 37 126 122 157 180 l23 43 22 -66 c12 -36 34 -105 49 -153z m633 69 c44
-3 22 -67 -24 -67 -25 0 -38 14 -53 53 -11 27 -10 28 22 22 17 -3 42 -7 55 -8z
m-1176 -457 l33 -1 -30 -16 c-63 -33 -83 -71 -53 -101 9 -9 9 -12 -1 -12 -7 0
-26 -9 -42 -21 -16 -11 -29 -17 -29 -12 0 24 32 129 51 166 20 39 22 40 30 19
6 -16 17 -22 41 -22z m214 -8 c-2 -2 -18 4 -36 13 -37 19 -70 12 -70 -16 0
-10 1 -21 3 -23 5 -9 -46 -55 -74 -66 -37 -16 -81 -5 -77 18 3 17 64 62 133
97 40 21 40 21 82 1 24 -11 41 -22 39 -24z m-86 -12 c-6 -11 -13 -20 -16 -20
-2 0 0 9 6 20 6 11 13 20 16 20 2 0 0 -9 -6 -20z m479 -6 c12 -15 21 -35 21
-45 0 -26 -42 -71 -99 -106 l-50 -32 6 30 c9 47 -5 34 -35 -34 -59 -130 -202
-207 -305 -163 -52 22 -72 52 -71 104 1 39 6 50 39 80 l38 35 83 -7 c80 -6 84
-5 99 18 10 16 14 33 9 51 -6 25 -5 26 14 16 44 -23 112 -7 112 28 0 12 14 22
48 33 64 22 68 22 91 -8z m-333 6 c18 0 44 -59 44 -100 0 -24 -4 -30 -21 -30
-11 0 -29 4 -39 10 -18 10 -66 78 -59 84 2 2 15 9 28 16 19 10 21 14 10 22
-11 8 -10 8 4 4 10 -3 25 -6 33 -6z m174 -27 c2 -2 -2 -9 -10 -14 -20 -13 -74
-4 -102 16 -22 15 -20 16 42 9 36 -4 67 -9 70 -11z m-280 -8 c19 12 2 -34 -27
-72 -18 -25 -32 -33 -54 -33 -22 0 -30 4 -27 15 5 23 82 104 89 93 4 -6 12 -7
19 -3z m38 -65 c11 -18 10 -20 -13 -20 -27 0 -28 1 -19 24 8 21 17 20 32 -4z
m-165 -24 c-4 -17 1 -28 15 -37 19 -12 20 -15 5 -42 -9 -18 -13 -47 -11 -73 3
-48 -2 -54 -58 -54 -39 0 -104 24 -116 43 -10 15 1 108 15 125 16 20 64 42
110 52 23 4 43 8 43 9 1 1 -1 -10 -3 -23z m1450 -103 c25 -54 25 -59 9 -71
-29 -22 -52 -9 -83 46 -28 48 -29 52 -11 52 11 0 25 7 32 15 20 24 25 19 53
-42z"/>
<path d="M618 609 c-21 -12 -24 -39 -5 -39 7 0 18 5 25 12 13 13 16 38 5 38
-5 0 -16 -5 -25 -11z"/>
<path d="M1115 1228 c-71 -39 -54 -128 25 -128 34 0 70 34 70 66 0 26 -40 74
-62 74 -7 0 -22 -6 -33 -12z m73 -51 c4 -30 -28 -67 -58 -67 -11 0 -27 11 -36
25 -14 21 -15 31 -5 51 23 52 92 46 99 -9z"/>
</g>
</svg>
